<?xml version="1.0" standalone="no"?>
<!DOCTYPE svg PUBLIC "-//W3C//DTD SVG 20010904//EN"
 "http://www.w3.org/TR/2001/REC-SVG-20010904/DTD/svg10.dtd">
<svg version="1.0" xmlns="http://www.w3.org/2000/svg"
 width="250.000000pt" height="250.000000pt" viewBox="0 0 250.000000 250.000000"
 preserveAspectRatio="xMidYMid meet">
<metadata>
Created by potrace 1.11, written by Peter Selinger 2001-2013
</metadata>
<g transform="translate(0.000000,250.000000) scale(0.100000,-0.100000)"
fill="#000000" stroke="none">
<path d="M1422 2370 c-18 -4 -35 -9 -37 -12 -4 -3 8 -102 19 -153 2 -11 7 -42
10 -70 4 -27 9 -57 11 -65 2 -8 6 -33 10 -55 6 -41 9 -61 25 -155 5 -30 12
-75 16 -100 3 -25 8 -54 10 -65 4 -29 15 -94 20 -119 2 -11 7 -41 10 -66 3
-25 12 -76 18 -115 l12 -70 34 1 c19 1 96 13 170 28 74 14 144 28 155 30 11 2
67 12 124 22 l103 19 -6 35 c-11 73 -12 75 -37 72 -19 -2 -158 -27 -264 -48
-188 -37 -168 -41 -180 41 -3 23 -7 50 -9 60 -7 37 -20 118 -31 195 -7 48 -16
105 -25 155 -5 28 -12 68 -15 90 -3 22 -10 65 -15 95 -10 56 -13 79 -26 160
-7 46 -12 79 -13 93 -1 9 -45 8 -89 -3z"/>
<path d="M1118 2315 c-2 -2 -19 -7 -38 -10 -85 -14 -88 -15 -96 -48 -10 -41
-9 -34 -19 -92 -4 -27 -9 -54 -11 -60 -3 -12 -12 -60 -19 -100 -3 -16 -8 -37
-10 -45 -2 -8 -7 -31 -10 -50 -3 -19 -8 -46 -10 -60 -15 -74 -18 -89 -30 -159
-3 -19 -7 -37 -9 -40 -2 -3 -7 -24 -10 -46 -4 -22 -8 -47 -11 -55 -2 -8 -6
-33 -10 -55 -3 -22 -10 -58 -16 -79 l-11 -40 -32 60 c-41 75 -62 113 -245 433
-83 145 -151 267 -151 271 0 24 -29 27 -107 13 -46 -9 -81 -18 -79 -22 3 -3 7
-27 11 -51 3 -25 10 -67 15 -95 6 -27 12 -66 14 -85 8 -56 16 -112 26 -165 5
-27 12 -68 15 -90 3 -23 8 -52 10 -65 3 -14 7 -38 9 -55 3 -16 7 -43 10 -60 3
-16 7 -48 11 -70 3 -23 8 -52 10 -65 3 -14 7 -41 10 -60 3 -19 7 -44 9 -55 2
-11 7 -44 11 -73 6 -43 10 -52 23 -48 10 3 35 8 57 12 55 8 58 11 50 53 -4 20
-9 50 -12 66 -2 17 -6 41 -9 55 -2 14 -7 43 -10 65 -3 22 -7 51 -10 65 -2 14
-7 41 -10 60 -6 39 -24 139 -55 300 -11 58 -23 121 -25 140 l-5 35 20 -33 c12
-18 21 -34 21 -36 0 -2 36 -65 80 -141 44 -76 80 -138 80 -139 0 -5 220 -383
235 -403 8 -12 21 -20 28 -18 6 2 25 7 41 9 39 7 45 15 50 62 3 21 5 39 6 39
2 0 8 31 14 70 3 17 7 41 10 55 3 14 8 36 11 50 7 32 14 67 20 103 3 15 12 60
21 100 8 39 17 83 19 97 4 25 34 176 39 195 8 31 20 111 17 120 -1 6 1 6 5 2
8 -8 10 -16 20 -87 3 -25 7 -56 9 -70 2 -14 7 -47 10 -75 9 -76 15 -119 19
-140 2 -11 7 -42 10 -70 4 -27 8 -61 11 -75 6 -34 13 -77 20 -125 6 -39 8 -52
21 -125 3 -19 7 -41 7 -48 0 -13 14 -13 100 4 33 7 33 -1 -2 209 -11 66 -23
140 -27 165 -3 25 -8 54 -10 65 -5 30 -11 65 -18 115 -4 25 -14 86 -22 135 -9
50 -17 101 -19 115 -2 14 -8 54 -15 90 -6 36 -14 83 -16 104 -2 21 -6 41 -9
44 -7 7 -32 11 -37 7z"/>
<path d="M2075 1181 c-33 -7 -35 -14 -23 -81 5 -25 11 -64 14 -86 2 -23 7 -53
10 -65 3 -13 7 -37 9 -54 2 -16 6 -43 9 -60 45 -259 45 -262 12 -220 -13 17
-38 46 -55 65 -17 19 -106 123 -198 231 l-168 195 -47 -9 c-47 -9 -48 -10 -42
-41 6 -36 13 -77 20 -126 2 -19 9 -60 14 -90 5 -30 11 -68 14 -85 6 -38 54
-331 60 -365 3 -14 5 -35 5 -47 1 -23 2 -23 73 -8 21 5 26 11 22 28 -2 12 -6
38 -9 57 -3 19 -6 44 -9 55 -2 11 -7 42 -10 68 -4 27 -9 59 -12 70 -2 12 -8
49 -13 82 -6 33 -13 78 -16 100 -4 22 -8 55 -11 74 -2 19 -7 38 -10 42 -3 5
-2 9 3 9 4 -1 28 -26 53 -56 24 -30 56 -67 70 -82 14 -16 48 -54 75 -87 28
-32 55 -63 60 -69 6 -6 35 -40 65 -76 121 -143 120 -142 165 -134 54 9 54 9
45 51 -5 21 -11 61 -14 88 -4 28 -11 73 -16 100 -5 28 -12 68 -15 90 -3 22
-12 78 -20 126 -8 47 -17 98 -19 115 -8 58 -27 169 -32 187 -6 18 -10 19 -59
8z"/>
<path d="M1460 1063 c-68 -10 -67 -10 -75 -70 -4 -32 -8 -64 -10 -73 -3 -18
-15 -94 -20 -130 -30 -208 -57 -385 -61 -389 -6 -7 -2 -14 -155 287 -156 307
-144 291 -221 273 l-27 -6 107 -200 c59 -110 128 -238 154 -285 25 -47 63
-118 84 -158 l38 -73 36 6 c42 8 49 14 55 46 2 13 22 134 45 269 42 255 47
281 54 316 2 12 7 39 11 60 12 76 16 99 21 117 3 9 2 16 -3 16 -4 -1 -19 -3
-33 -6z"/>
<path d="M829 946 c-2 -2 -21 -7 -42 -10 -21 -3 -71 -13 -110 -21 -40 -8 -88
-17 -107 -20 -19 -3 -48 -8 -65 -11 -16 -3 -45 -9 -62 -14 -18 -4 -33 -5 -34
-2 -1 4 -4 -4 -8 -18 -4 -14 -5 -29 -1 -35 4 -5 8 -17 8 -25 1 -8 3 -26 5 -40
14 -88 19 -118 23 -145 2 -16 6 -41 9 -55 3 -14 7 -41 10 -60 3 -19 7 -46 10
-60 4 -24 12 -74 20 -135 3 -16 7 -41 10 -55 3 -14 7 -43 10 -65 7 -55 14 -75
27 -75 10 0 248 44 385 71 52 10 52 11 46 42 -3 18 -9 36 -14 41 -4 5 -46 1
-96 -8 -48 -10 -99 -19 -113 -22 -14 -2 -46 -9 -73 -15 -26 -6 -53 -9 -61 -6
-8 3 -16 30 -20 64 -4 32 -9 65 -11 73 -2 8 -6 35 -10 60 -4 24 -9 48 -11 52
-7 10 29 23 91 33 28 5 57 10 65 12 8 2 32 6 53 9 87 14 92 17 89 60 -2 21 -4
39 -5 40 -2 2 -210 -37 -283 -52 -23 -4 -26 4 -40 106 -3 25 -9 64 -14 88 -4
23 -5 44 -1 46 4 3 47 12 96 21 50 10 99 19 110 21 28 5 88 18 98 20 4 1 14 2
23 3 13 1 15 9 10 43 -6 42 -9 51 -17 44z"/>
</g>
</svg>
